<svg version="1.1" xmlns="http://www.w3.org/2000/svg" xmlns:xlink="http://www.w3.org/1999/xlink" width="48" height="48"><defs><linearGradient x1="11.67152" y1="12.68862" x2="63.09651" y2="62.07941" gradientUnits="userSpaceOnUse" id="color-1"><stop offset="0" stop-color="#000000" stop-opacity="0.3"></stop><stop offset="1" stop-color="#000000" stop-opacity="0"></stop></linearGradient><filter id="dropshadow-base"><feColorMatrix type="matrix" values="0 0 0 0 0  0 0 0 0 0  0 0 0 0 0  0 0 0 .8 0"></feColorMatrix> <feOffset dx="0" dy="1"></feOffset> <feGaussianBlur stdDeviation="1"></feGaussianBlur> <feComposite in="SourceGraphic"></feComposite></filter><filter id="dropshadow-banner" x="-10%" y="-10%" width="120%" height="130%"><feColorMatrix type="matrix" values="0 0 0 0 0  0 0 0 0 0  0 0 0 0 0  0 0 0 .4 0"></feColorMatrix> <feOffset dx="0" dy="1"></feOffset> <feGaussianBlur stdDeviation="0.5"></feGaussianBlur> <feComposite in="SourceGraphic"></feComposite></filter></defs><g fill="none" fill-rule="nonzero" stroke="none" stroke-width="none" stroke-linecap="butt" stroke-linejoin="miter" stroke-miterlimit="10" stroke-dasharray="" stroke-dashoffset="0" font-family="none" font-weight="none" font-size="none" text-anchor="none" style="mix-blend-mode: normal"><path d="M2,24c0,-12.15026 9.84974,-22 22,-22c12.15026,0 22,9.84974 22,22c0,12.15026 -9.84974,22 -22,22c-12.15026,0 -22,-9.84974 -22,-22z" id="base 1 5" fill="#9c27b0" stroke-width="1"></path><path d="M17.00008,28.8213c-3.32896,-3.32896 -5.32856,-6.13759 -5.32856,-9.35202c0,-3.80334 2.97733,-6.78066 6.78066,-6.78066c1.95393,0 3.83626,0.8285 5.17184,2.16408l0.39002,0.39002c1.34408,-1.56244 3.39607,-2.55411 5.53377,-2.55411c1.90167,0 3.59683,0.74433 4.81658,1.96408l0,0l11.5288,11.5288c-0.8067,8.19515 -6.11024,15.06988 -13.40969,18.12323z" fill="url(#color-1)" stroke-width="1"></path><path transform="translate(-5.58836,-5.58836) scale(1.23285,1.23285)" d="M24,33.175l-1.45,-1.315c-5.15,-4.675 -8.55,-7.76 -8.55,-11.535c0,-3.085 2.415,-5.5 5.5,-5.5c1.74,0 3.41,0.81 4.5,2.085c1.09,-1.275 2.76,-2.085 4.5,-2.085c3.085,0 5.5,2.415 5.5,5.5c0,3.775 -3.4,6.86 -8.55,11.535z" fill="none" stroke-width="0"></path><path d="M24,35.31138l-1.78763,-1.6212c-6.34917,-5.76357 -10.54085,-9.5669 -10.54085,-14.2209c0,-3.80334 2.97733,-6.78066 6.78066,-6.78066c2.14516,0 4.20401,0.99861 5.54782,2.57049c1.3438,-1.57188 3.40266,-2.57049 5.54782,-2.57049c3.80334,0 6.78066,2.97733 6.78066,6.78066c0,4.654 -4.19168,8.45734 -10.54085,14.2209z" fill="#ffffff" stroke-width="0"></path><path d="M2,24c0,-12.15026 9.84974,-22 22,-22c12.15026,0 22,9.84974 22,22c0,12.15026 -9.84974,22 -22,22c-12.15026,0 -22,-9.84974 -22,-22z" id="base 1 1 1" fill="none" stroke-width="1"></path><g fill="#000000" stroke-width="1" font-family="Roboto, sans-serif" font-weight="normal" font-size="14" text-anchor="start"></g><rect x="2" y="2" width="44" height="22" fill="none" stroke-width="1"></rect><path d="M2,24v-22h44v22z" fill="none" stroke-width="1"></path><path d="M2,24v-22h44v22z" fill="none" stroke-width="1"></path><path d="M2,24v-22h44v22z" fill="none" stroke-width="1"></path><path d="M2,24v-22h44v22z" fill="none" stroke-width="1"></path></g></svg>